<svg xmlns="http://www.w3.org/2000/svg" width="512" height="486"><path d="M196.033 227.53c-6.358 4.18-13.562 8.924-21.54 15.193-.946.685-23.213 16.974-32.33 32.178-9.158 15.281-12.136 40.343-12.261 41.404a7.83 7.83 0 0 0 1.938 6.112 7.847 7.847 0 0 0 5.851 2.623h97.75a7.836 7.836 0 0 0 7.837-7.837 7.836 7.836 0 0 0-7.836-7.836h-88.555c1.483-7.738 4.242-18.934 8.72-26.405 6.2-10.34 22.386-23.4 28.337-27.737 7.69-6.04 14.602-10.59 20.704-14.602 15.977-10.512 28.594-18.814 28.594-40.093 0-27.982-22.768-50.75-50.75-50.75-27.993 0-50.772 22.763-50.772 50.75a7.833 7.833 0 0 0 7.837 7.837 7.833 7.833 0 0 0 7.836-7.837c0-19.34 15.747-35.077 35.098-35.077 19.341 0 35.078 15.736 35.078 35.077 0 12.246-5.178 16.233-21.536 27zm135.179 98.42a7.84 7.84 0 0 0 7.836-7.837v-36.948h22.957a7.84 7.84 0 0 0 7.837-7.837 7.84 7.84 0 0 0-7.837-7.837h-22.957v-106.96a7.834 7.834 0 0 0-5.616-7.513 7.848 7.848 0 0 0-8.803 3.26L250.436 269.07a7.844 7.844 0 0 0-.303 7.999 7.837 7.837 0 0 0 6.88 4.09h66.362v36.948a7.84 7.84 0 0 0 7.837 7.842zm-59.8-60.459l51.963-80.4v80.4h-51.963z"/><path d="M508.96 208.074c-3.308-2.79-8.26-2.366-11.04.94l-13.767 16.332C475.073 99.964 370.228.71 242.568.71 108.968.71.272 109.4.272 242.995c0 133.6 108.695 242.286 242.296 242.286 85.582 0 163.155-43.782 207.5-117.113a7.836 7.836 0 0 0-2.648-10.762c-3.699-2.247-8.521-1.055-10.762 2.649-41.483 68.597-114.04 109.552-194.09 109.552-124.96 0-226.623-101.658-226.623-226.612S117.608 16.383 242.568 16.383c120.017 0 218.488 93.79 226.095 211.915l-17.554-14.66a7.837 7.837 0 0 0-11.04.993 7.842 7.842 0 0 0 .988 11.04l31.174 26.033a7.826 7.826 0 0 0 5.02 1.823c2.232 0 4.452-.95 5.993-2.784l26.656-31.619c2.79-3.312 2.372-8.26-.94-11.05z"/></svg>