<svg xmlns="http://www.w3.org/2000/svg" width="508" height="510"><path d="M26.421 199.394c.741.207 1.487.31 2.223.31a8.18 8.18 0 0 0 7.86-5.953C56.558 122.67 111.385 65.39 180.968 41.74l-11.394 30.58c-1.574 4.227.578 8.933 4.805 10.513a8.216 8.216 0 0 0 2.854.517 8.177 8.177 0 0 0 7.658-5.321l17.953-48.177a8.173 8.173 0 0 0-4.766-10.496L149.11.846a8.171 8.171 0 0 0-10.534 4.756c-1.59 4.22.533 8.938 4.755 10.534l29.369 11.1C99.496 53.218 42.005 114.102 20.784 189.316a8.157 8.157 0 0 0 5.637 10.078zm165.404 272.433C120.705 451.684 63.41 396.67 39.88 326.952l32.19 11.428c4.249 1.525 8.922-.714 10.436-4.962 1.514-4.249-.713-8.928-4.967-10.43l-48.45-17.202c-4.248-1.52-8.894.703-10.42 4.924L.926 359.96c-1.53 4.243.675 8.933 4.918 10.458a8.074 8.074 0 0 0 2.767.485c3.345 0 6.488-2.07 7.686-5.398l10.011-27.779c26.363 72.143 86.68 128.763 161.068 149.83a8.17 8.17 0 0 0 10.087-5.632c1.231-4.351-1.296-8.872-5.637-10.097zm288.392-160.975c-4.325-1.248-8.857 1.285-10.088 5.637-20.071 70.966-74.828 128.169-144.296 151.83l14.172-31.951c1.83-4.129-.033-8.955-4.156-10.78a8.148 8.148 0 0 0-10.779 4.157l-20.845 47a8.169 8.169 0 0 0 4.123 10.768l47.758 21.45a8.088 8.088 0 0 0 3.339.719 8.168 8.168 0 0 0 7.456-4.826c1.852-4.112.011-8.955-4.106-10.796l-26.722-12.004c72.137-26.374 128.74-86.697 149.787-161.111a8.183 8.183 0 0 0-5.643-10.093zm22.533-174.505c-4.123-1.852-8.954-.017-10.8 4.09l-12.888 28.612C452.068 98.513 392.523 43.288 319.296 22.547c-4.33-1.226-8.856 1.29-10.093 5.637a8.169 8.169 0 0 0 5.632 10.087c68.892 19.506 124.814 71.74 149.646 138.355l-30.252-13.454c-4.134-1.835-8.954.022-10.779 4.145a8.169 8.169 0 0 0 4.145 10.785l46.979 20.894a8.145 8.145 0 0 0 3.312.708 8.169 8.169 0 0 0 7.45-4.815l21.505-47.736c1.857-4.112.022-8.954-4.09-10.806zM320.99 319.349c.289-.284.556-.567.752-.812 18.427-23.372 34.952-87.568 37.441-103.849 2.598-17.103 11.755-75.934 11.755-75.94.528-3.403-1.199-6.71-4.222-8.366-3.017-1.65-6.82-1.17-9.4 1.117-.077.065-7.68 6.64-35.607 17.528-29.358 11.45-112.139 50.127-116.104 52-27.828 15.208-45.121 44.092-45.121 75.374 0 21.738 8.154 41.564 21.482 56.744l-23.58 27.224c-2.951 3.415-2.587 8.573.829 11.525a8.128 8.128 0 0 0 5.343 1.993 8.15 8.15 0 0 0 6.177-2.821l23.127-26.706c14.603 11.373 32.899 18.214 52.801 18.214 30.53.006 58.87-16.52 74.327-43.225zM176.824 276.4c0-25.306 14.031-48.695 36.156-60.803.855-.398 85.798-40.094 114.66-51.347.333-.131.605-.245.932-.376L192.73 320.715c-9.93-12.064-15.905-27.506-15.905-44.314zm69.845 69.838c-15.812 0-30.372-5.343-42.093-14.237L350.56 163.45c-2.767 17.822-6.122 39.468-7.533 48.77-2.854 18.694-19.21 76.365-33.612 95.538a10.1 10.1 0 0 0-.795.735 8.32 8.32 0 0 0-1.177 1.612c-12.402 22.289-35.687 36.134-60.775 36.134z"/></svg>