<svg xmlns="http://www.w3.org/2000/svg" width="503" height="506"><path d="M329.626 185.733l-166.262 132.13c-3.303 2.752-4.405 8.257-1.101 11.56 1.651 2.203 3.853 3.304 6.606 3.304 1.652 0 3.854-.55 4.955-1.652l166.262-132.129c3.304-2.752 4.405-8.258 1.101-11.561-2.752-3.854-7.707-4.404-11.56-1.652zm-121.669 58.908c2.202 0 4.405 0 6.607-.55 22.572-3.304 38.537-24.775 34.684-47.897-1.652-11.011-7.708-20.92-16.517-27.527-8.808-6.607-19.819-9.36-30.83-7.708-11.01 1.652-20.92 7.708-27.526 16.516-6.607 8.809-9.36 19.82-7.708 30.83 3.303 21.471 21.47 36.336 41.29 36.336zm-3.853-66.615c1.1 0 2.752-.55 3.853-.55 12.112 0 23.123 8.808 24.774 21.47 2.203 13.764-7.156 26.426-20.92 28.628-13.763 2.202-26.426-7.157-28.628-20.92-2.202-13.764 7.708-26.426 20.92-28.628zm91.94 94.142c-23.123 0-41.842 18.718-41.842 41.84 0 23.123 18.719 41.841 41.841 41.841 23.123 0 41.841-18.718 41.841-41.84-.55-23.123-19.269-41.841-41.84-41.841zm0 66.615c-13.764 0-25.325-11.561-25.325-25.325 0-13.763 11.56-25.325 25.324-25.325 13.764 0 25.325 11.562 25.325 25.325-.55 14.314-11.561 25.325-25.325 25.325z"/><path d="M501.944 252.899c0-.55.55-1.652.55-2.202 0-23.673-24.773-35.785-46.244-46.245-15.415-7.708-31.931-15.966-36.336-25.876-4.404-10.46 1.652-27.527 7.708-43.492 8.258-22.572 16.516-45.695 1.1-61.11-15.414-15.415-37.436-9.91-59.457-4.955-15.415 3.304-31.38 7.157-41.841 2.753-10.46-4.404-19.269-18.168-27.527-31.38C287.785 21.672 274.572.201 251.45.201c-23.123 0-36.336 21.471-47.897 40.74-8.258 13.763-16.516 27.527-26.976 31.931s-26.977.55-42.392-3.303c-22.021-5.505-44.593-11.01-59.458 3.854-15.415 15.415-7.707 38.537-.55 61.11 5.505 16.515 10.46 33.032 6.056 44.042-4.405 10.46-19.82 18.168-34.684 25.876C24.629 215.462.955 227.574.955 250.697c0 .55 0 1.651.55 2.202 0 .55-.55 1.652-.55 2.202 0 23.123 23.673 35.785 44.594 46.245 14.864 7.708 30.28 15.415 34.684 25.876 4.404 10.46-1.102 27.526-6.056 44.043-7.157 22.572-14.865 45.694.55 61.11 15.415 15.414 37.987 9.358 59.458 3.853 15.415-3.854 31.931-7.708 42.392-3.303 10.46 4.404 18.718 18.167 26.976 31.93 11.561 19.27 24.774 40.74 47.897 40.74 23.122 0 36.886-21.47 48.447-40.189 8.258-13.212 17.067-26.976 27.527-31.38 11.01-4.404 26.426-1.101 41.84 2.752 21.472 4.955 44.044 10.46 59.459-4.954 15.415-15.415 7.157-38.538-1.101-61.11-6.056-16.516-12.112-33.032-7.708-43.492 4.405-10.46 20.37-18.168 36.336-25.876 21.47-11.01 46.245-23.122 46.245-46.245 0-1.101-.55-1.652-.55-2.202zm-53.402 33.583c-18.167 9.359-37.436 18.718-44.043 34.684-7.157 16.516.55 36.335 7.157 55.604 6.607 18.168 13.213 35.785 4.955 43.492-8.809 8.809-25.875 4.955-44.043.55-18.168-4.403-36.335-8.257-52.301-1.65-15.415 6.606-25.325 22.02-34.684 37.436-10.46 16.516-20.37 32.482-34.684 32.482-13.763 0-23.673-15.966-34.133-33.033-9.36-15.965-19.269-31.93-34.684-38.537-15.966-6.607-34.684-2.202-52.852 2.752-18.167 4.405-35.234 8.809-44.043.55-8.258-8.257-2.752-25.874 3.304-44.042 6.056-19.269 12.662-39.088 5.505-55.054-6.606-15.965-24.774-25.325-42.391-34.133-18.168-9.36-35.235-18.168-35.235-31.931 0-.55 0-1.652-.55-2.203 0-.55.55-1.651.55-2.202 0-13.213 17.067-22.021 35.235-31.93 17.617-8.81 35.785-18.169 42.391-34.134 6.606-16.516.55-36.336-5.505-55.054-6.056-18.718-11.562-36.335-3.304-44.043 8.809-8.809 25.876-4.404 44.043.55 18.168 4.405 36.886 9.36 52.852 2.753 15.415-6.606 25.325-22.572 34.684-38.537 10.46-17.067 19.82-33.033 34.133-33.033 14.314 0 24.224 15.966 34.684 32.482 9.91 15.415 19.82 30.83 34.684 37.437 15.966 6.606 34.133 2.202 52.301-1.652 18.168-4.404 35.234-8.258 44.043.55 8.258 7.708 1.652 25.325-4.955 43.493-7.157 19.269-14.314 39.088-7.157 55.604 6.607 15.966 25.876 25.325 44.043 34.684 19.27 9.36 36.886 18.718 36.886 31.931 0 .55 0 1.652.55 2.203 0 .55-.55 1.651-.55 2.202.55 11.01-17.617 20.37-36.886 29.729z"/></svg>