<svg xmlns="http://www.w3.org/2000/svg" width="506" height="506"><path d="M253 505.732C113.562 505.732.268 392.438.268 253S113.562.268 253 .268 505.732 113.562 505.732 253 392.438 505.732 253 505.732zm0-489.123C122.821 16.609 16.609 122.82 16.609 253c0 130.179 106.212 236.391 236.391 236.391 130.179 0 236.391-106.212 236.391-236.391C489.391 122.821 383.18 16.609 253 16.609z"/><path d="M158.226 330.345c-26.145 0-46.843-30.502-46.843-69.72 0-39.216 20.698-69.719 46.843-69.719 26.144 0 46.842 30.503 46.842 69.72s-20.153 69.719-46.842 69.719zm0-123.098c-16.34 0-30.503 24.51-30.503 53.379 0 28.868 14.162 53.378 30.503 53.378 16.34 0 30.502-24.51 30.502-53.378 0-28.869-13.617-53.38-30.502-53.38zm101.31 123.098c-26.145 0-46.842-30.502-46.842-69.72 0-39.216 20.697-69.719 46.842-69.719s46.843 30.503 46.843 69.72-20.698 69.719-46.843 69.719zm0-123.098c-16.34 0-30.502 24.51-30.502 53.379 0 28.868 14.162 53.378 30.502 53.378 16.34 0 30.502-24.51 30.502-53.378 0-28.869-13.617-53.38-30.502-53.38zM95.587 330.345c-4.357 0-8.17-3.813-8.17-8.17v-103.49l-19.064 14.706c-3.813 2.724-8.715 2.18-11.438-1.634-2.724-3.812-2.179-8.714 1.634-11.438l32.136-25.055c2.724-2.179 5.992-2.179 8.715-1.09 2.723 1.635 4.357 4.358 4.357 7.081V321.63c0 4.902-3.812 8.715-8.17 8.715zm248.92-1.09c-1.635 0-3.269-.544-4.358-1.634-3.813-2.723-4.902-7.625-2.179-11.438l79.524-118.196c2.723-3.813 7.625-4.902 11.438-2.178 3.813 2.723 4.902 7.625 2.179 11.438l-80.068 118.196c-1.634 2.723-4.358 3.812-6.537 3.812zm9.259-74.076c-17.975 0-33.226-14.707-33.226-33.226 0-17.974 14.707-33.225 33.226-33.225 17.974 0 33.225 14.706 33.225 33.225 0 18.52-15.25 33.226-33.225 33.226zm0-49.566c-9.26 0-16.885 7.625-16.885 16.885 0 9.26 7.625 16.885 16.885 16.885 9.26 0 16.885-7.626 16.885-16.885 0-9.26-7.625-16.885-16.885-16.885zm69.174 117.65c-17.974 0-33.225-14.706-33.225-33.225 0-17.974 14.706-33.225 33.225-33.225 17.975 0 33.226 14.706 33.226 33.225 0 18.52-14.706 33.226-33.226 33.226zm0-49.565c-9.26 0-16.885 7.625-16.885 16.885 0 9.26 7.626 16.885 16.885 16.885 9.26 0 16.886-7.625 16.886-16.885 0-9.804-7.626-16.885-16.886-16.885z"/></svg>