<svg xmlns="http://www.w3.org/2000/svg" width="470" height="508"><path d="M469.602 144.065v-.023c0-.022-.005-.039-.005-.06a8.49 8.49 0 0 0-.223-1.793c-.045-.189-.106-.367-.161-.55a8.379 8.379 0 0 0-.79-1.81c-.079-.133-.134-.283-.218-.411-.15-.223-.334-.407-.5-.612-.134-.167-.257-.334-.401-.49a8.147 8.147 0 0 0-1.397-1.202l-.017-.017-.005-.006a.309.309 0 0 1-.045-.033L263.433 2.352a8.356 8.356 0 0 0-9.255 0l-71.246 47.5-.005.005-65.464 43.637a8.279 8.279 0 0 0-2.46 1.641L4.183 169.02a8.56 8.56 0 0 0-1.48 1.263c-.145.156-.268.323-.401.49-.167.206-.35.384-.501.612-.089.128-.14.273-.217.407a8.463 8.463 0 0 0-.785 1.803c-.06.195-.122.378-.167.573a8.166 8.166 0 0 0-.211 1.72c0 .044-.017.083-.017.122v187.937a8.348 8.348 0 0 0 3.723 6.951l202.446 134.745c.028.017.056.023.084.04a8.532 8.532 0 0 0 1.892.89c.167.055.328.111.495.156.69.183 1.403.311 2.148.311.746 0 1.458-.128 2.149-.317.166-.044.333-.1.495-.156.684-.228 1.341-.517 1.931-.907a.182.182 0 0 1 .05-.022l.033-.022c.006 0 .006-.006.012-.006l250.011-166.678a8.347 8.347 0 0 0 3.718-6.946V144.104c.011-.011.011-.028.011-.04zM258.814 19.325l187.38 124.723-59.263 39.513-184.593-126.58 56.476-37.655zM211.198 300.72L23.806 175.998l97.085-64.724L305.49 237.855l-94.291 62.865zm-23.83-233.761l184.592 126.58-51.506 34.338-184.598-126.581 51.512-34.337zm141.195 175.577l49.558-33.041-1.764 78.659-47.794 31.354v-76.972zM17.1 191.586l185.75 123.637v167.88L17.1 359.472V191.586zm202.446 291.506V315.217l92.321-61.55v81.301a8.36 8.36 0 0 0 4.38 7.346 8.4 8.4 0 0 0 3.968 1.002 8.321 8.321 0 0 0 4.58-1.369l64.39-42.245a8.373 8.373 0 0 0 3.767-6.796l2.12-94.714 57.834-38.556v167.88l-233.36 155.576z"/><path d="M187.58 356.695a8.33 8.33 0 0 0 6.956-3.723c2.554-3.835 1.513-9.021-2.321-11.576l-95.644-63.66c-3.84-2.555-9.027-1.52-11.576 2.326-2.554 3.834-1.513 9.021 2.321 11.576l95.65 63.66a8.296 8.296 0 0 0 4.613 1.397zm4.635 28.249l-54.773-36.458c-3.84-2.554-9.027-1.513-11.576 2.327-2.554 3.834-1.513 9.02 2.321 11.575l54.773 36.458a8.3 8.3 0 0 0 4.62 1.397 8.33 8.33 0 0 0 6.956-3.723 8.351 8.351 0 0 0-2.321-11.576z"/></svg>