<svg xmlns="http://www.w3.org/2000/svg" width="512" height="512"><path d="M306.432 371.265c4.936-15.396 13.412-29.813 25.585-41.943 40.736-40.797 106.687-40.732 147.485.004 40.797 40.736 40.732 106.687-.004 147.485-13.107 12.959-28.63 21.938-45.131 26.552-81.14 28.875-206.474-15.815-307.322-116.613C13.792 273.468-28.57 129.044 24.825 51.31a105.543 105.543 0 0 1 16.23-20.737c40.736-40.797 106.687-40.732 147.485.004 40.798 40.736 40.733 106.687-.003 147.485-13.24 13.187-29.171 22.083-46.031 26.793 1.564 33.898 21.73 75.342 56.51 110.172 33.953 33.895 73.994 53.82 107.464 56.418l-.048-.18z"/></svg>