<svg xmlns="http://www.w3.org/2000/svg" width="508" height="510" viewBox="0 0 508 510">
  <path d="M28.4214468 200.393532C29.1622128 200.600511 29.9084255 200.704 30.6437447 200.704 34.2059574 200.704 37.4849362 198.350979 38.5034894 194.750638 58.5586383 123.669787 113.386213 66.3911489 182.969191 42.7411064L171.574468 73.3194894C170.00034 77.5462128 172.15183 82.2522553 176.378553 83.8318298 177.320851 84.1804255 178.284936 84.3492766 179.232681 84.3492766 182.54434 84.3492766 185.665362 82.317617 186.890894 79.0277447L204.843574 30.8507234C206.412255 26.6348936 204.282553 21.9451915 200.077617 20.3547234L151.110809 1.84646809C146.884085.250553191 142.172596 2.38025532 140.576681 6.60153191 138.986213 10.8228085 141.110468 15.5397447 145.331745 17.1356596L174.700936 28.2362553C101.49583 54.2175319 44.004766 115.101957 22.784 190.316936 21.5530213 194.652596 24.0748936 199.168 28.4214468 200.393532zM193.824681 472.826553C122.705702 452.684255 65.4107234 397.671489 41.8805106 327.95234L74.0711489 339.379745C78.3196596 340.904851 82.9930213 338.666213 84.507234 334.417702 86.0214468 330.169191 83.7937021 325.490383 79.5397447 323.987064L31.090383 306.786043C26.8418723 305.266383 22.1957447 307.488681 20.6706383 311.709957L2.92493617 360.96C1.39438298 365.203064 3.60034043 369.892766 7.84340426 371.417872 8.75846809 371.750128 9.68987234 371.902638 10.610383 371.902638 13.9547234 371.902638 17.0975319 369.832851 18.2958298 366.504851L28.3070638 338.726128C54.669617 410.869106 114.987574 467.488681 189.374638 488.556936 190.120851 488.769362 190.867064 488.867404 191.60783 488.867404 195.170043 488.867404 198.443574 486.51983 199.462128 482.924936 200.693106 478.572936 198.165787 474.052085 193.824681 472.826553zM482.216851 311.851574C477.892085 310.604255 473.36034 313.137021 472.129362 317.489021 452.057872 388.455489 397.301106 445.657872 327.832511 469.318809L342.005106 437.36783C343.835234 433.239149 341.972426 428.413277 337.849191 426.588596 333.698723 424.747574 328.889191 426.621277 327.069957 430.744511L306.225021 477.745021C304.40034 481.857362 306.241362 486.67234 310.348255 488.513362L358.105872 509.962894C359.189787 510.453106 360.32817 510.681872 361.444766 510.681872 364.56034 510.681872 367.539745 508.889872 368.901447 505.856 370.753362 501.74366 368.91234 496.901447 364.794553 495.060426L338.072511 483.05566C410.210043 456.682213 466.813277 396.358809 487.859745 321.944511 489.085277 317.597957 486.557957 313.082553 482.216851 311.851574zM504.750298 137.346723C500.627064 135.494809 495.795745 137.330383 493.949277 141.437277L481.062128 170.049362C454.067745 99.5131915 394.523234 44.288 321.29634 23.5465532 316.966128 22.3210213 312.43983 24.8374468 311.203404 29.184 309.972426 33.5251064 312.494298 38.0405106 316.835404 39.2714894 385.726638 58.7765106 441.649021 111.011404 466.481021 177.625872L436.229447 164.172255C432.095319 162.336681 427.274894 164.194043 425.450213 168.317277 423.614638 172.440511 425.472 177.266383 429.595234 179.101957L476.573957 199.995915C477.652426 200.475234 478.779915 200.704 479.885617 200.704 483.001191 200.704 485.975149 198.912 487.336851 195.889021L508.840851 148.153191C510.698213 144.040851 508.862638 139.198638 504.750298 137.346723zM322.990298 320.348596C323.278979 320.065362 323.545872 319.782128 323.741957 319.537021 342.168511 296.164766 358.694128 231.968681 361.183319 215.68817 363.781447 198.585191 372.937532 139.754213 372.937532 139.748766 373.465872 136.344511 371.739234 133.038298 368.716255 131.382468 365.698723 129.732085 361.896851 130.211404 359.315064 132.499064 359.238809 132.564426 351.635064 139.138723 323.709277 150.026894 294.350979 161.476085 211.570383 200.153872 207.605106 202.027574 179.777362 217.235064 162.483745 246.119489 162.483745 277.400511 162.483745 299.138723 170.637617 318.965106 183.965957 334.145362L160.386723 361.368511C157.434553 364.78366 157.799489 369.941787 161.214638 372.893957 162.761532 374.233872 164.662468 374.887489 166.557957 374.887489 168.845617 374.887489 171.122383 373.928851 172.734638 372.066043L195.861787 345.36034C210.464681 356.733277 228.760511 363.574468 248.663149 363.574468 279.192511 363.579915 307.532255 347.054298 322.990298 320.348596zM178.82417 277.400511C178.82417 252.094638 192.855149 228.706043 214.980085 216.597787 215.835234 216.20017 300.778213 176.50383 329.640851 165.250723 329.973106 165.12 330.245447 165.005617 330.572255 164.874894L194.728851 321.715745C184.799319 309.651064 178.82417 294.209362 178.82417 277.400511zM248.668596 347.239489C232.856511 347.239489 218.297191 341.89617 206.57566 333.001532L352.561021 164.450043C349.794043 182.272 346.438809 203.917617 345.028085 213.220766 342.173957 231.914213 325.817191 289.585021 311.41583 308.757787 311.110809 309.013787 310.827574 309.275234 310.620596 309.493106 310.163064 309.983319 309.770894 310.522553 309.444085 311.105362 297.041702 333.393702 273.756596 347.239489 248.668596 347.239489z" transform="translate(-2 -1)"/>
</svg>
