<svg xmlns="http://www.w3.org/2000/svg" width="512" height="512" viewBox="0 0 512 512">
  <path fill-rule="evenodd" d="M510.872679,121.644918 C511.495281,121.100135 512,121.329232 512,122.154144 L512,446.504358 C512,447.330378 511.332354,448 510.508459,448 L1.49154089,448 C0.667785605,448 0,447.32927 0,446.504358 L0,122.154144 C0,121.328123 0.505470543,121.100791 1.12732572,121.644918 L255.243274,343.997748 C255.661494,344.363692 256.33435,344.368251 256.757778,343.997748 L510.872679,121.644918 Z M510.872679,64.9985377 C511.495281,64.4470606 511.332354,64 510.508459,64 L1.49154089,64 C0.667785604,64 0.505470543,64.4477246 1.12732572,64.9985377 L255.254756,290.093929 C255.666634,290.458754 256.33435,290.458816 256.746297,290.093929 L510.872679,64.9985377 Z"/>
</svg>
