<svg xmlns="http://www.w3.org/2000/svg" width="512" height="512" viewBox="0 0 512 512">
  <path d="M306.432252,371.265301 C311.367985,355.869102 319.843578,341.4523 332.016538,329.322223 C372.752576,288.524576 438.704192,288.589579 479.501839,329.325617 C520.299486,370.061655 520.234483,436.013271 479.498445,476.810917 C466.390824,489.769806 450.867334,498.749064 434.36698,503.363111 C353.22765,532.237561 227.892625,487.548218 127.04533,386.750363 C13.791688,273.467995 -28.5695387,129.044288 24.8255735,51.3091827 C29.2191469,43.9626465 34.6566906,36.9147495 41.0547242,30.5734403 C81.7907621,-10.2242066 147.742378,-10.1592039 188.540025,30.5768341 C229.337672,71.3128721 229.272669,137.264488 188.536631,178.062135 C175.297332,191.249097 159.365893,200.144874 142.505787,204.855316 C144.069798,238.752871 164.235945,280.197351 199.016751,315.026784 C232.968745,348.921557 273.009752,368.84622 306.48045,371.445177 L306.432252,371.265301 Z"/>
</svg>
