<svg xmlns="http://www.w3.org/2000/svg" xmlns:xlink="http://www.w3.org/1999/xlink" width="271" height="80" viewBox="0 0 271 80">
  <defs>
    <path id="logo-a" d="M1.16671096,0.348870432 L18.6338206,0.348870432 C24.2145351,0.348870432 27.0048505,2.76567904 27.0048505,7.59936877 L27.0048505,34.9535216 C27.0048505,39.831154 24.2145351,42.2699336 18.6338206,42.2699336 L1.16671096,42.2699336 L1.16671096,0.348870432 Z M17.5792027,34.1625581 L17.5792027,8.45624585 C17.5792027,7.35768 16.985986,6.80840532 15.7995349,6.80840532 L10.5923588,6.80840532 L10.5923588,35.8103987 L15.7995349,35.8103987 C16.985986,35.8103987 17.5792027,35.261124 17.5792027,34.1625581 Z M44.6290697,35.3490033 L58.0754485,35.3490033 L58.0754485,42.2699336 L35.2034219,42.2699336 L35.2034219,0.348870432 L57.5481395,0.348870432 L57.5481395,7.26980066 L44.6290697,7.26980066 L44.6290697,17.486412 L55.6366445,17.486412 L55.6366445,24.4073422 L44.6290697,24.4073422 L44.6290697,35.3490033 Z M72.9972092,42.2699336 L64.692093,42.2699336 L64.692093,0.348870432 L74.9746179,0.348870432 L81.8955481,24.0777741 L88.8164783,0.348870432 L99.0990033,0.348870432 L99.0990033,42.2699336 L90.793887,42.2699336 L90.793887,14.1248173 L85.38897,33.1738538 L78.4021262,33.1738538 L72.9972092,14.1907309 L72.9972092,42.2699336 Z M115.668605,0.348870432 L124.50103,0.348870432 C130.037802,0.348870432 132.806146,2.76567904 132.806146,7.59936877 L132.806146,34.9535216 C132.806146,39.831154 130.037802,42.2699336 124.50103,42.2699336 L115.668605,42.2699336 C110.08789,42.2699336 107.297575,39.831154 107.297575,34.9535216 L107.297575,7.59936877 C107.297575,2.76567904 110.08789,0.348870432 115.668605,0.348870432 Z M123.380498,33.7011628 L123.380498,8.9176412 C123.380498,7.81907535 122.809253,7.26980066 121.666744,7.26980066 L118.50289,7.26980066 C117.316439,7.26980066 116.723223,7.81907535 116.723223,8.9176412 L116.723223,33.7011628 C116.723223,34.7997286 117.316439,35.3490033 118.50289,35.3490033 L121.666744,35.3490033 C122.809253,35.3490033 123.380498,34.7997286 123.380498,33.7011628 Z M155.571628,33.7011628 L155.571628,26.1210963 C155.571628,25.5498421 155.439802,25.1433788 155.176146,24.9016944 C154.91249,24.6600099 154.4511,24.5391694 153.79196,24.5391694 L147.991561,24.5391694 C142.806331,24.5391694 140.213754,22.0784188 140.213754,17.1568439 L140.213754,7.59936877 C140.213754,2.76567904 142.982098,0.348870432 148.51887,0.348870432 L156.560332,0.348870432 C162.097104,0.348870432 164.865448,2.76567904 164.865448,7.59936877 L164.865448,13.0701993 L155.439801,13.0701993 L155.439801,8.9176412 C155.439801,7.81907535 154.846584,7.26980066 153.660133,7.26980066 L151.41907,7.26980066 C150.232619,7.26980066 149.639402,7.81907535 149.639402,8.9176412 L149.639402,16.2999668 C149.639402,16.871221 149.771228,17.2776843 150.034884,17.5193688 C150.298539,17.7610533 150.75993,17.8818937 151.41907,17.8818937 L157.087641,17.8818937 C159.89997,17.8818937 161.9213,18.4860958 163.151694,19.6945183 C164.382088,20.9029407 164.997276,22.6935762 164.997276,25.0664784 L164.997276,34.9535216 C164.997276,39.831154 162.228931,42.2699336 156.692159,42.2699336 L148.716611,42.2699336 C143.135897,42.2699336 140.345581,39.831154 140.345581,34.9535216 L140.345581,29.5486047 L149.771229,29.5486047 L149.771229,33.7011628 C149.771229,34.7997286 150.364446,35.3490033 151.550897,35.3490033 L153.79196,35.3490033 C154.978411,35.3490033 155.571628,34.7997286 155.571628,33.7011628 Z M190.399302,0.348870432 L199.693123,0.348870432 L199.693123,42.2699336 L190.399302,42.2699336 L190.399302,25.0005648 L181.962359,25.0005648 L181.962359,42.2699336 L172.668538,42.2699336 L172.668538,0.348870432 L181.962359,0.348870432 L181.962359,18.0796346 L190.399302,18.0796346 L190.399302,0.348870432 Z M216.262724,0.348870432 L225.095149,0.348870432 C230.631921,0.348870432 233.400266,2.76567904 233.400266,7.59936877 L233.400266,34.9535216 C233.400266,39.831154 230.631921,42.2699336 225.095149,42.2699336 L216.262724,42.2699336 C210.68201,42.2699336 207.891694,39.831154 207.891694,34.9535216 L207.891694,7.59936877 C207.891694,2.76567904 210.68201,0.348870432 216.262724,0.348870432 Z M223.974618,33.7011628 L223.974618,8.9176412 C223.974618,7.81907535 223.403372,7.26980066 222.260864,7.26980066 L219.09701,7.26980066 C217.910559,7.26980066 217.317342,7.81907535 217.317342,8.9176412 L217.317342,33.7011628 C217.317342,34.7997286 217.910559,35.3490033 219.09701,35.3490033 L222.260864,35.3490033 C223.403372,35.3490033 223.974618,34.7997286 223.974618,33.7011628 Z M241.598837,0.348870432 L258.868206,0.348870432 C264.404978,0.348870432 267.173322,2.76567904 267.173322,7.59936877 L267.173322,20.3206977 C267.173322,25.19833 264.404978,27.6371096 258.868206,27.6371096 L250.958571,27.6371096 L250.958571,42.2699336 L241.598837,42.2699336 L241.598837,0.348870432 Z M257.747674,19.0683389 L257.747674,8.9176412 C257.747674,7.81907535 257.176429,7.26980066 256.03392,7.26980066 L250.958571,7.26980066 L250.958571,20.7161794 L256.03392,20.7161794 C257.176429,20.7161794 257.747674,20.1669047 257.747674,19.0683389 Z"/>
  </defs>
  <g fill="none" fill-rule="evenodd" transform="translate(2 1)">
    <use fill="#212121" xlink:href="#logo-a"/>
    <use fill="#FFF" xlink:href="#logo-a"/>
    <path fill="#A1A1A1" d="M0.246417378,72.8252699 L0.246417378,60.3838637 L3.75838027,60.3838637 C4.84074245,60.3838637 5.79776413,60.6231191 6.62947402,61.1016371 C7.46118391,61.5801551 8.10347078,62.2608938 8.5563539,63.1438734 C9.00923703,64.0268531 9.23852347,65.0408404 9.24422011,66.1858656 L9.24422011,66.9805434 C9.24422011,68.1540518 9.01778195,69.1822805 8.56489882,70.0652602 C8.1120157,70.9482398 7.46545641,71.6261302 6.62520156,72.0989516 C5.78494671,72.5717729 4.80656293,72.8138766 3.69002089,72.8252699 L0.246417378,72.8252699 Z M1.88704238,61.7339613 L1.88704238,71.4837172 L3.6131166,71.4837172 C4.87777136,71.4837172 5.86185169,71.0906547 6.5653871,70.304518 C7.26892252,69.5183812 7.62068496,68.3990077 7.62068496,66.9463637 L7.62068496,66.2200453 C7.62068496,64.8072778 7.28886048,63.7092664 6.62520156,62.9259779 C5.96154264,62.1426895 5.02018649,61.7453546 3.80110488,61.7339613 L1.88704238,61.7339613 Z M15.3111146,72.9961684 C14.0578532,72.9961684 13.0381694,72.5845921 12.2520326,71.7614272 C11.4658959,70.9382622 11.0728334,69.8374025 11.0728334,68.4588149 L11.0728334,68.1682875 C11.0728334,67.251128 11.2480025,66.4322478 11.5983461,65.7116225 C11.9486896,64.9909971 12.4385936,64.4270379 13.0680727,64.0197279 C13.6975517,63.612418 14.3797145,63.408766 15.1145814,63.408766 C16.3165731,63.408766 17.2508086,63.8046768 17.9173158,64.5965102 C18.5838231,65.3883436 18.9170717,66.5219585 18.9170717,67.9973891 L18.9170717,68.6553481 L12.6536439,68.6553481 C12.6764305,69.5668109 12.9427446,70.303091 13.4525941,70.8642104 C13.9624437,71.4253297 14.6104271,71.7058852 15.3965639,71.7058852 C15.9548349,71.7058852 16.4276492,71.591954 16.8150209,71.3640883 C17.2023926,71.1362226 17.5413378,70.834305 17.8318666,70.4583266 L18.7974428,71.2102797 C18.0226993,72.4008781 16.8606016,72.9961684 15.3111146,72.9961684 Z M15.1145814,64.7075942 C14.4765574,64.7075942 13.941081,64.9397289 13.5081361,65.4040053 C13.0751913,65.8682817 12.807453,66.5191134 12.7049135,67.3565199 L17.3362611,67.3565199 L17.3362611,67.236891 C17.290688,66.4336644 17.0742188,65.8113154 16.6868471,65.3698256 C16.2994753,64.9283358 15.775392,64.7075942 15.1145814,64.7075942 Z M23.7962221,70.6804945 L26.0862611,63.5796645 L27.7012514,63.5796645 L24.3858217,72.8252699 L23.1809877,72.8252699 L19.8313783,63.5796645 L21.4463686,63.5796645 L23.7962221,70.6804945 Z M33.0589174,72.9961684 C31.8056559,72.9961684 30.7859721,72.5845921 29.9998353,71.7614272 C29.2136986,70.9382622 28.8206361,69.8374025 28.8206361,68.4588149 L28.8206361,68.1682875 C28.8206361,67.251128 28.9958053,66.4322478 29.3461488,65.7116225 C29.6964924,64.9909971 30.1863963,64.4270379 30.8158754,64.0197279 C31.4453544,63.612418 32.1275172,63.408766 32.8623842,63.408766 C34.0643759,63.408766 34.9986113,63.8046768 35.6651186,64.5965102 C36.3316258,65.3883436 36.6648744,66.5219585 36.6648744,67.9973891 L36.6648744,68.6553481 L30.4014467,68.6553481 C30.4242332,69.5668109 30.6905473,70.303091 31.2003969,70.8642104 C31.7102464,71.4253297 32.3582299,71.7058852 33.1443666,71.7058852 C33.7026376,71.7058852 34.1754519,71.591954 34.5628236,71.3640883 C34.9501954,71.1362226 35.2891405,70.834305 35.5796693,70.4583266 L36.5452455,71.2102797 C35.770502,72.4008781 34.6084043,72.9961684 33.0589174,72.9961684 Z M32.8623842,64.7075942 C32.2243602,64.7075942 31.6888837,64.9397289 31.2559389,65.4040053 C30.822994,65.8682817 30.5552558,66.5191134 30.4527162,67.3565199 L35.0840639,67.3565199 L35.0840639,67.236891 C35.0384907,66.4336644 34.8220215,65.8113154 34.4346498,65.3698256 C34.0472781,64.9283358 33.5231948,64.7075942 32.8623842,64.7075942 Z M40.211017,72.8252699 L38.6302064,72.8252699 L38.6302064,59.7002699 L40.211017,59.7002699 L40.211017,72.8252699 Z M42.3216127,68.117018 C42.3216127,67.2112517 42.4996301,66.396644 42.8556703,65.6731703 C43.2117105,64.9496967 43.707311,64.391434 44.3424867,63.9983656 C44.9776624,63.6052973 45.7025494,63.408766 46.5171693,63.408766 C47.7761274,63.408766 48.7943871,63.8445527 49.5719789,64.7161391 C50.3495707,65.5877255 50.7383607,66.7469749 50.7383607,68.1939223 L50.7383607,68.3050063 C50.7383607,69.2050759 50.5660399,70.0125629 50.221393,70.7274916 C49.8767461,71.4424203 49.3839938,71.9992588 48.7431215,72.3980238 C48.1022491,72.7967889 47.3659691,72.9961684 46.5342592,72.9961684 C45.2809977,72.9961684 44.2655863,72.5603817 43.4879945,71.6887953 C42.7104027,70.8172089 42.3216127,69.663656 42.3216127,68.228102 L42.3216127,68.117018 Z M43.9109682,68.3050063 C43.9109682,69.330402 44.1487994,70.1535546 44.6244691,70.7744887 C45.1001388,71.3954228 45.7367291,71.7058852 46.5342592,71.7058852 C47.3374858,71.7058852 47.9755003,71.3911504 48.4483217,70.7616713 C48.921143,70.1321922 49.1575502,69.25065 49.1575502,68.117018 C49.1575502,67.1030155 48.9168706,66.2812871 48.4355043,65.651808 C47.954138,65.022329 47.3146994,64.7075942 46.5171693,64.7075942 C45.7367292,64.7075942 45.1072596,65.0180565 44.6287416,65.6389906 C44.1502236,66.2599247 43.9109682,67.1485877 43.9109682,68.3050063 Z M60.5308412,68.3050063 C60.5308412,69.7120771 60.2089857,70.8456921 59.565265,71.7058852 C58.9215444,72.5660783 58.0499711,72.9961684 56.9505189,72.9961684 C55.8282803,72.9961684 54.9453138,72.6401335 54.3015932,71.9280531 L54.3015932,76.3799574 L52.7207826,76.3799574 L52.7207826,63.5796645 L54.1648744,63.5796645 L54.2417787,64.6050551 C54.8854994,63.8075251 55.7798589,63.408766 56.9248842,63.408766 C58.0357296,63.408766 58.9144236,63.827463 59.5609926,64.6648695 C60.2075616,65.5022761 60.5308412,66.6672221 60.5308412,68.1597426 L60.5308412,68.3050063 Z M58.9500307,68.1255629 C58.9500307,67.0830772 58.7278649,66.2599246 58.2835268,65.6560805 C57.8391886,65.0522363 57.2296569,64.7503188 56.4549135,64.7503188 C55.4978774,64.7503188 54.7801112,65.1747123 54.3015932,66.0235121 L54.3015932,70.4412367 C54.7744145,71.2843399 55.4978774,71.7058852 56.4720033,71.7058852 C57.2296568,71.7058852 57.8320678,71.4053918 58.2792543,70.8043959 C58.7264408,70.2034001 58.9500307,69.3104647 58.9500307,68.1255629 Z M66.3755678,72.9961684 C65.1223063,72.9961684 64.1026225,72.5845921 63.3164857,71.7614272 C62.530349,70.9382622 62.1372865,69.8374025 62.1372865,68.4588149 L62.1372865,68.1682875 C62.1372865,67.251128 62.3124557,66.4322478 62.6627992,65.7116225 C63.0131428,64.9909971 63.5030467,64.4270379 64.1325258,64.0197279 C64.7620048,63.612418 65.4441676,63.408766 66.1790346,63.408766 C67.3810263,63.408766 68.3152617,63.8046768 68.9817689,64.5965102 C69.6482762,65.3883436 69.9815248,66.5219585 69.9815248,67.9973891 L69.9815248,68.6553481 L63.7180971,68.6553481 C63.7408836,69.5668109 64.0071977,70.303091 64.5170473,70.8642104 C65.0268968,71.4253297 65.6748802,71.7058852 66.461017,71.7058852 C67.019288,71.7058852 67.4921023,71.591954 67.879474,71.3640883 C68.2668457,71.1362226 68.6057909,70.834305 68.8963197,70.4583266 L69.8618959,71.2102797 C69.0871524,72.4008781 67.9250547,72.9961684 66.3755678,72.9961684 Z M66.1790346,64.7075942 C65.5410105,64.7075942 65.0055341,64.9397289 64.5725893,65.4040053 C64.1396444,65.8682817 63.8719062,66.5191134 63.7693666,67.3565199 L68.4007143,67.3565199 L68.4007143,67.236891 C68.3551411,66.4336644 68.1386719,65.8113154 67.7513002,65.3698256 C67.3639285,64.9283358 66.8398452,64.7075942 66.1790346,64.7075942 Z M71.4256166,68.1255629 C71.4256166,66.7070988 71.7617135,65.5663631 72.4339174,64.7033217 C73.1061213,63.8402803 73.9862394,63.408766 75.0742982,63.408766 C76.1566604,63.408766 77.0139923,63.7790423 77.6463197,64.5196059 L77.6463197,59.7002699 L79.2271303,59.7002699 L79.2271303,72.8252699 L77.7744936,72.8252699 L77.6975893,71.834059 C77.0652619,72.6088025 76.1851437,72.9961684 75.0572084,72.9961684 C73.9862395,72.9961684 73.113242,72.5575334 72.4381898,71.6802504 C71.7631376,70.8029674 71.4256166,69.6579593 71.4256166,68.2451918 L71.4256166,68.1255629 Z M73.0064271,68.3050063 C73.0064271,69.3531886 73.2228963,70.1734929 73.6558412,70.7659438 C74.0887861,71.3583946 74.6869246,71.6546156 75.4502748,71.6546156 C76.452884,71.6546156 77.1848916,71.2045876 77.6463197,70.304518 L77.6463197,66.0576918 C77.1734983,65.1861054 76.4471873,64.7503188 75.4673646,64.7503188 C74.6926212,64.7503188 74.0887861,65.049388 73.6558412,65.6475356 C73.2228963,66.2456831 73.0064271,67.1314978 73.0064271,68.3050063 Z M85.5930971,68.117018 C85.5930971,67.2112517 85.7711145,66.396644 86.1271547,65.6731703 C86.4831949,64.9496967 86.9787954,64.391434 87.6139711,63.9983656 C88.2491468,63.6052973 88.9740337,63.408766 89.7886537,63.408766 C91.0476118,63.408766 92.0658715,63.8445527 92.8434633,64.7161391 C93.6210551,65.5877255 94.0098451,66.7469749 94.0098451,68.1939223 L94.0098451,68.3050063 C94.0098451,69.2050759 93.8375242,70.0125629 93.4928773,70.7274916 C93.1482304,71.4424203 92.6554782,71.9992588 92.0146059,72.3980238 C91.3737335,72.7967889 90.6374534,72.9961684 89.8057436,72.9961684 C88.5524821,72.9961684 87.5370707,72.5603817 86.7594789,71.6887953 C85.9818871,70.8172089 85.5930971,69.663656 85.5930971,68.228102 L85.5930971,68.117018 Z M87.1824525,68.3050063 C87.1824525,69.330402 87.4202838,70.1535546 87.8959535,70.7744887 C88.3716232,71.3954228 89.0082135,71.7058852 89.8057436,71.7058852 C90.6089702,71.7058852 91.2469847,71.3911504 91.7198061,70.7616713 C92.1926274,70.1321922 92.4290346,69.25065 92.4290346,68.117018 C92.4290346,67.1030155 92.188355,66.2812871 91.7069887,65.651808 C91.2256223,65.022329 90.5861837,64.7075942 89.7886537,64.7075942 C89.0082136,64.7075942 88.378744,65.0180565 87.900226,65.6389906 C87.421708,66.2599247 87.1824525,67.1485877 87.1824525,68.3050063 Z M97.4876283,63.5796645 L97.5388978,64.7417738 C98.2452816,63.8530975 99.1681239,63.408766 100.307453,63.408766 C102.261401,63.408766 103.246906,64.5110499 103.263996,66.7156508 L103.263996,72.8252699 L101.683185,72.8252699 L101.683185,66.7071059 C101.677488,66.0405986 101.525105,65.5478464 101.226032,65.2288344 C100.926958,64.9098224 100.461264,64.7503188 99.8289369,64.7503188 C99.316239,64.7503188 98.866211,64.8870361 98.4788393,65.160475 C98.0914675,65.4339139 97.78955,65.792797 97.5730775,66.2371352 L97.5730775,72.8252699 L95.992267,72.8252699 L95.992267,63.5796645 L97.4876283,63.5796645 Z M113.893878,67.2796156 C112.486807,66.875154 111.462851,66.3781293 110.821979,65.7885268 C110.181107,65.1989242 109.860675,64.471189 109.860675,63.6052992 C109.860675,62.6254766 110.252314,61.8151413 111.035602,61.174269 C111.81889,60.5333966 112.83715,60.2129652 114.090412,60.2129652 C114.944908,60.2129652 115.706823,60.3781654 116.376178,60.7085707 C117.045534,61.038976 117.56392,61.4947006 117.931354,62.0757582 C118.298787,62.6568158 118.482501,63.291982 118.482501,63.9812758 L116.833331,63.9812758 C116.833331,63.2293189 116.594076,62.6383011 116.115558,62.2082045 C115.63704,61.778108 114.961998,61.5630629 114.090412,61.5630629 C113.281488,61.5630629 112.650594,61.7410803 112.197711,62.0971205 C111.744828,62.4531607 111.51839,62.9473371 111.51839,63.5796645 C111.51839,64.0866657 111.733435,64.5153317 112.163532,64.8656752 C112.593628,65.2160188 113.325636,65.5364501 114.359577,65.8269789 C115.393517,66.1175077 116.202428,66.4379391 116.786334,66.7882826 C117.37024,67.1386262 117.803179,67.5473542 118.085162,68.0144789 C118.367146,68.4816036 118.508136,69.0313215 118.508136,69.6636488 C118.508136,70.6719547 118.115074,71.4794417 117.328937,72.0861342 C116.5428,72.6928267 115.491785,72.9961684 114.175861,72.9961684 C113.321364,72.9961684 112.523846,72.8323923 111.783283,72.5048354 C111.042719,72.1772784 110.471639,71.7286745 110.070026,71.1590102 C109.668412,70.5893459 109.467609,69.9427866 109.467609,69.2193129 L111.116779,69.2193129 C111.116779,69.9712698 111.394486,70.5651359 111.949909,71.0009291 C112.505331,71.4367223 113.247308,71.6546156 114.175861,71.6546156 C115.04175,71.6546156 115.705399,71.4780224 116.166828,71.1248305 C116.628256,70.7716386 116.858966,70.2902795 116.858966,69.6807387 C116.858966,69.0711979 116.645345,68.5998077 116.218097,68.2665541 C115.790849,67.9333005 115.016117,67.6043243 113.893878,67.2796156 Z M121.943195,64.6990492 C122.643882,63.8388561 123.555331,63.408766 124.67757,63.408766 C126.631518,63.408766 127.617023,64.5110499 127.634113,66.7156508 L127.634113,72.8252699 L126.053302,72.8252699 L126.053302,66.7071059 C126.047606,66.0405986 125.895223,65.5478464 125.596149,65.2288344 C125.297075,64.9098224 124.831381,64.7503188 124.199054,64.7503188 C123.686356,64.7503188 123.236328,64.8870361 122.848956,65.160475 C122.461585,65.4339139 122.159667,65.792797 121.943195,66.2371352 L121.943195,72.8252699 L120.362384,72.8252699 L120.362384,59.7002699 L121.943195,59.7002699 L121.943195,64.6990492 Z M129.582355,68.117018 C129.582355,67.2112517 129.760372,66.396644 130.116412,65.6731703 C130.472453,64.9496967 130.968053,64.391434 131.603229,63.9983656 C132.238405,63.6052973 132.963292,63.408766 133.777912,63.408766 C135.03687,63.408766 136.055129,63.8445527 136.832721,64.7161391 C137.610313,65.5877255 137.999103,66.7469749 137.999103,68.1939223 L137.999103,68.3050063 C137.999103,69.2050759 137.826782,70.0125629 137.482135,70.7274916 C137.137488,71.4424203 136.644736,71.9992588 136.003864,72.3980238 C135.362991,72.7967889 134.626711,72.9961684 133.795001,72.9961684 C132.54174,72.9961684 131.526328,72.5603817 130.748737,71.6887953 C129.971145,70.8172089 129.582355,69.663656 129.582355,68.228102 L129.582355,68.117018 Z M131.17171,68.3050063 C131.17171,69.330402 131.409542,70.1535546 131.885211,70.7744887 C132.360881,71.3954228 132.997471,71.7058852 133.795001,71.7058852 C134.598228,71.7058852 135.236242,71.3911504 135.709064,70.7616713 C136.181885,70.1321922 136.418292,69.25065 136.418292,68.117018 C136.418292,67.1030155 136.177613,66.2812871 135.696246,65.651808 C135.21488,65.022329 134.575442,64.7075942 133.777912,64.7075942 C132.997471,64.7075942 132.368002,65.0180565 131.889484,65.6389906 C131.410966,66.2599247 131.17171,67.1485877 131.17171,68.3050063 Z M147.791583,68.3050063 C147.791583,69.7120771 147.469728,70.8456921 146.826007,71.7058852 C146.182287,72.5660783 145.310713,72.9961684 144.211261,72.9961684 C143.089022,72.9961684 142.206056,72.6401335 141.562335,71.9280531 L141.562335,76.3799574 L139.981525,76.3799574 L139.981525,63.5796645 L141.425617,63.5796645 L141.502521,64.6050551 C142.146242,63.8075251 143.040601,63.408766 144.185626,63.408766 C145.296472,63.408766 146.175166,63.827463 146.821735,64.6648695 C147.468304,65.5022761 147.791583,66.6672221 147.791583,68.1597426 L147.791583,68.3050063 Z M146.210773,68.1255629 C146.210773,67.0830772 145.988607,66.2599246 145.544269,65.6560805 C145.099931,65.0522363 144.490399,64.7503188 143.715656,64.7503188 C142.75862,64.7503188 142.040853,65.1747123 141.562335,66.0235121 L141.562335,70.4412367 C142.035157,71.2843399 142.75862,71.7058852 143.732746,71.7058852 C144.490399,71.7058852 145.09281,71.4053918 145.539996,70.8043959 C145.987183,70.2034001 146.210773,69.3104647 146.210773,68.1255629 Z M155.182941,70.3728774 C155.182941,69.9456291 155.022013,69.6138046 154.700153,69.377394 C154.378292,69.1409833 153.817181,68.9373313 153.016803,68.766432 C152.216425,68.5955328 151.581259,68.3904567 151.111286,68.1511977 C150.641312,67.9119387 150.293822,67.6271108 150.068805,67.2967055 C149.843788,66.9663002 149.731281,66.5732377 149.731281,66.1175063 C149.731281,65.3598527 150.051712,64.71899 150.692584,64.1948988 C151.333457,63.6708077 152.152337,63.408766 153.149249,63.408766 C154.197432,63.408766 155.047643,63.6793525 155.699909,64.2205336 C156.352174,64.7617147 156.678302,65.4538464 156.678302,66.2969496 L155.088947,66.2969496 C155.088947,65.8640047 154.905233,65.4908802 154.537799,65.1775649 C154.170366,64.8642495 153.70752,64.7075942 153.149249,64.7075942 C152.573888,64.7075942 152.12386,64.8329184 151.799152,65.0835707 C151.474443,65.334223 151.312091,65.6617751 151.312091,66.0662367 C151.312091,66.4479118 151.46305,66.735588 151.764972,66.9292738 C152.066894,67.1229597 152.61234,67.3080978 153.401325,67.4846938 C154.19031,67.6612897 154.829748,67.8720623 155.31966,68.117018 C155.809571,68.3619736 156.172726,68.6567705 156.409137,69.0014174 C156.645548,69.3460643 156.763751,69.7661854 156.763751,70.2617934 C156.763751,71.0878066 156.433351,71.7500314 155.77254,72.2484877 C155.11173,72.746944 154.254398,72.9961684 153.200519,72.9961684 C152.459955,72.9961684 151.804851,72.8651475 151.235187,72.603102 C150.665523,72.3410564 150.219767,71.9750526 149.897907,71.5050795 C149.576046,71.0351065 149.415119,70.5266887 149.415119,69.9798109 L150.995929,69.9798109 C151.024412,70.5095988 151.236609,70.9297199 151.632526,71.2401869 C152.028442,71.550654 152.551102,71.7058852 153.200519,71.7058852 C153.798666,71.7058852 154.278601,71.5848333 154.640338,71.342726 C155.002075,71.1006187 155.182941,70.777339 155.182941,70.3728774 Z M161.84798,70.5095961 L164.0013,63.5796645 L165.693195,63.5796645 L161.976154,74.2522719 C161.400793,75.7903655 160.486495,76.5594008 159.233234,76.5594008 L158.934162,76.533766 L158.344562,76.422682 L158.344562,75.1409438 L158.771808,75.1751234 C159.307292,75.1751234 159.724565,75.0668889 160.023639,74.8504164 C160.322713,74.633944 160.569089,74.2380332 160.762775,73.6626723 L161.113117,72.7227309 L157.814777,63.5796645 L159.540851,63.5796645 L161.84798,70.5095961 Z M172.486408,70.3728774 C172.486408,69.9456291 172.32548,69.6138046 172.00362,69.377394 C171.681759,69.1409833 171.120648,68.9373313 170.32027,68.766432 C169.519892,68.5955328 168.884725,68.3904567 168.414752,68.1511977 C167.944779,67.9119387 167.597289,67.6271108 167.372272,67.2967055 C167.147254,66.9663002 167.034747,66.5732377 167.034747,66.1175063 C167.034747,65.3598527 167.355179,64.71899 167.996051,64.1948988 C168.636924,63.6708077 169.455804,63.408766 170.452716,63.408766 C171.500899,63.408766 172.35111,63.6793525 173.003375,64.2205336 C173.655641,64.7617147 173.981769,65.4538464 173.981769,66.2969496 L172.392413,66.2969496 C172.392413,65.8640047 172.208699,65.4908802 171.841266,65.1775649 C171.473833,64.8642495 171.010987,64.7075942 170.452716,64.7075942 C169.877355,64.7075942 169.427327,64.8329184 169.102619,65.0835707 C168.77791,65.334223 168.615558,65.6617751 168.615558,66.0662367 C168.615558,66.4479118 168.766517,66.735588 169.068439,66.9292738 C169.370361,67.1229597 169.915806,67.3080978 170.704791,67.4846938 C171.493776,67.6612897 172.133215,67.8720623 172.623126,68.117018 C173.113038,68.3619736 173.476193,68.6567705 173.712604,69.0014174 C173.949015,69.3460643 174.067218,69.7661854 174.067218,70.2617934 C174.067218,71.0878066 173.736818,71.7500314 173.076007,72.2484877 C172.415197,72.746944 171.557865,72.9961684 170.503986,72.9961684 C169.763422,72.9961684 169.108318,72.8651475 168.538654,72.603102 C167.968989,72.3410564 167.523234,71.9750526 167.201373,71.5050795 C166.879513,71.0351065 166.718585,70.5266887 166.718585,69.9798109 L168.299396,69.9798109 C168.327879,70.5095988 168.540076,70.9297199 168.935993,71.2401869 C169.331909,71.550654 169.854568,71.7058852 170.503986,71.7058852 C171.102133,71.7058852 171.582068,71.5848333 171.943805,71.342726 C172.305542,71.1006187 172.486408,70.777339 172.486408,70.3728774 Z M187.568195,67.3308852 L182.347247,67.3308852 L182.347247,72.8252699 L180.706622,72.8252699 L180.706622,60.3838637 L188.414142,60.3838637 L188.414142,61.7339613 L182.347247,61.7339613 L182.347247,65.9893324 L187.568195,65.9893324 L187.568195,67.3308852 Z M194.600665,64.9981215 C194.361406,64.958245 194.102213,64.938307 193.823078,64.938307 C192.786288,64.938307 192.082764,65.3797903 191.712482,66.2627699 L191.712482,72.8252699 L190.131671,72.8252699 L190.131671,63.5796645 L191.669757,63.5796645 L191.695392,64.6477797 C192.213787,63.8217665 192.948642,63.408766 193.899982,63.408766 C194.207601,63.408766 194.441159,63.4486419 194.600665,63.5283949 L194.600665,64.9981215 Z M201.76131,72.8252699 C201.670164,72.6429774 201.596108,72.3182736 201.539142,71.8511488 C200.804275,72.614499 199.927005,72.9961684 198.907306,72.9961684 C197.995843,72.9961684 197.24817,72.7383991 196.664264,72.2228529 C196.080358,71.7073067 195.78841,71.0536268 195.78841,70.2617934 C195.78841,69.2990607 196.154413,68.5513875 196.886432,68.0187514 C197.618451,67.4861153 198.648103,67.2198012 199.975421,67.2198012 L201.513507,67.2198012 L201.513507,66.4934828 C201.513507,65.9409084 201.348307,65.5008494 201.017902,65.1732924 C200.687496,64.8457354 200.200441,64.6819594 199.55672,64.6819594 C198.992752,64.6819594 198.519938,64.8243733 198.138263,65.1092055 C197.756588,65.3940376 197.565753,65.7386794 197.565753,66.143141 L195.976398,66.143141 C195.976398,65.6817129 196.140174,65.2359573 196.467731,64.8058608 C196.795288,64.3757642 197.239619,64.0353949 197.800739,63.7847426 C198.361858,63.5340903 198.97851,63.408766 199.650714,63.408766 C200.715987,63.408766 201.550532,63.6750801 202.154376,64.2077162 C202.758221,64.7403523 203.071531,65.4737841 203.094318,66.4080336 L203.094318,70.6634047 C203.094318,71.5122045 203.202552,72.1872466 203.419025,72.6885512 L203.419025,72.8252699 L201.76131,72.8252699 Z M199.138019,71.6204359 C199.633627,71.6204359 200.103593,71.4922634 200.547931,71.2359145 C200.992269,70.9795655 201.314125,70.6463169 201.513507,70.2361586 L201.513507,68.3391859 L200.274494,68.3391859 C198.337635,68.3391859 197.36922,68.9059934 197.36922,70.0396254 C197.36922,70.5352333 197.53442,70.9225993 197.864826,71.2017348 C198.195231,71.4808703 198.619624,71.6204359 199.138019,71.6204359 Z M207.059162,63.5796645 L207.101886,64.6050551 C207.779787,63.8075251 208.694084,63.408766 209.844806,63.408766 C211.137944,63.408766 212.018062,63.9043665 212.485187,64.8955824 C212.792806,64.4512443 213.192989,64.0923611 213.685748,63.8189223 C214.178508,63.5454834 214.760981,63.408766 215.433185,63.408766 C217.46119,63.408766 218.492267,64.4825671 218.526447,66.6302016 L218.526447,72.8252699 L216.945636,72.8252699 L216.945636,66.7241957 C216.945636,66.0633851 216.794677,65.5692087 216.492755,65.2416518 C216.190833,64.9140948 215.68384,64.7503188 214.971759,64.7503188 C214.385005,64.7503188 213.897949,64.9254879 213.510578,65.2758315 C213.123206,65.626175 212.898192,66.0975651 212.835529,66.690016 L212.835529,72.8252699 L211.246173,72.8252699 L211.246173,66.7669203 C211.246173,65.4225126 210.588221,64.7503188 209.272296,64.7503188 C208.235507,64.7503188 207.526286,65.191802 207.144611,66.0747817 L207.144611,72.8252699 L205.5638,72.8252699 L205.5638,63.5796645 L207.059162,63.5796645 Z M224.74715,72.9961684 C223.493888,72.9961684 222.474205,72.5845921 221.688068,71.7614272 C220.901931,70.9382622 220.508869,69.8374025 220.508869,68.4588149 L220.508869,68.1682875 C220.508869,67.251128 220.684038,66.4322478 221.034381,65.7116225 C221.384725,64.9909971 221.874629,64.4270379 222.504108,64.0197279 C223.133587,63.612418 223.81575,63.408766 224.550617,63.408766 C225.752608,63.408766 226.686844,63.8046768 227.353351,64.5965102 C228.019858,65.3883436 228.353107,66.5219585 228.353107,67.9973891 L228.353107,68.6553481 L222.089679,68.6553481 C222.112466,69.5668109 222.37878,70.303091 222.888629,70.8642104 C223.398479,71.4253297 224.046462,71.7058852 224.832599,71.7058852 C225.39087,71.7058852 225.863684,71.591954 226.251056,71.3640883 C226.638428,71.1362226 226.977373,70.834305 227.267902,70.4583266 L228.233478,71.2102797 C227.458734,72.4008781 226.296637,72.9961684 224.74715,72.9961684 Z M224.550617,64.7075942 C223.912593,64.7075942 223.377116,64.9397289 222.944171,65.4040053 C222.511226,65.8682817 222.243488,66.5191134 222.140949,67.3565199 L226.772296,67.3565199 L226.772296,67.236891 C226.726723,66.4336644 226.510254,65.8113154 226.122882,65.3698256 C225.73551,64.9283358 225.211427,64.7075942 224.550617,64.7075942 Z M238.367755,70.6463149 L240.145099,63.5796645 L241.72591,63.5796645 L239.034259,72.8252699 L237.752521,72.8252699 L235.505206,65.818434 L233.317706,72.8252699 L232.035968,72.8252699 L229.352863,63.5796645 L230.925128,63.5796645 L232.745197,70.5010512 L234.898517,63.5796645 L236.17171,63.5796645 L238.367755,70.6463149 Z M242.913654,68.117018 C242.913654,67.2112517 243.091671,66.396644 243.447711,65.6731703 C243.803752,64.9496967 244.299352,64.391434 244.934528,63.9983656 C245.569703,63.6052973 246.29459,63.408766 247.10921,63.408766 C248.368168,63.408766 249.386428,63.8445527 250.16402,64.7161391 C250.941612,65.5877255 251.330402,66.7469749 251.330402,68.1939223 L251.330402,68.3050063 C251.330402,69.2050759 251.158081,70.0125629 250.813434,70.7274916 C250.468787,71.4424203 249.976035,71.9992588 249.335162,72.3980238 C248.69429,72.7967889 247.95801,72.9961684 247.1263,72.9961684 C245.873039,72.9961684 244.857627,72.5603817 244.080036,71.6887953 C243.302444,70.8172089 242.913654,69.663656 242.913654,68.228102 L242.913654,68.117018 Z M244.503009,68.3050063 C244.503009,69.330402 244.74084,70.1535546 245.21651,70.7744887 C245.69218,71.3954228 246.32877,71.7058852 247.1263,71.7058852 C247.929527,71.7058852 248.567541,71.3911504 249.040363,70.7616713 C249.513184,70.1321922 249.749591,69.25065 249.749591,68.117018 C249.749591,67.1030155 249.508912,66.2812871 249.027545,65.651808 C248.546179,65.022329 247.90674,64.7075942 247.10921,64.7075942 C246.32877,64.7075942 245.699301,65.0180565 245.220783,65.6389906 C244.742265,66.2599247 244.503009,67.1485877 244.503009,68.3050063 Z M257.781818,64.9981215 C257.542559,64.958245 257.283365,64.938307 257.00423,64.938307 C255.967441,64.938307 255.263916,65.3797903 254.893634,66.2627699 L254.893634,72.8252699 L253.312824,72.8252699 L253.312824,63.5796645 L254.85091,63.5796645 L254.876544,64.6477797 C255.394939,63.8217665 256.129795,63.408766 257.081134,63.408766 C257.388753,63.408766 257.622312,63.4486419 257.781818,63.5283949 L257.781818,64.9981215 Z M261.815021,68.5442641 L260.82381,69.5781996 L260.82381,72.8252699 L259.242999,72.8252699 L259.242999,59.7002699 L260.82381,59.7002699 L260.82381,67.6385024 L261.669757,66.6216567 L264.549396,63.5796645 L266.472003,63.5796645 L262.874591,67.4419692 L266.890704,72.8252699 L265.036456,72.8252699 L261.815021,68.5442641 Z"/>
  </g>
</svg>
