<svg xmlns="http://www.w3.org/2000/svg" width="512" height="486" viewBox="0 0 512 486">
  <g transform="translate(0 -2.551)">
    <path d="M196.033306 230.081306C189.675102 234.260898 182.470531 239.004735 174.492735 245.274122 173.547102 245.958531 151.280327 262.24849 142.163592 277.451755 133.005061 292.733388 130.027102 317.795265 129.901714 318.855837 129.645714 321.076245 130.35102 323.301878 131.84 324.96849 133.32898 326.635102 135.455347 327.591184 137.691429 327.591184L235.441633 327.591184C239.772735 327.591184 243.278367 324.080327 243.278367 319.754449 243.278367 315.428571 239.772735 311.917714 235.441633 311.917714L146.886531 311.917714C148.370286 304.180245 151.128816 292.984163 155.606204 285.513143 161.807673 275.173878 177.993143 262.112653 183.943837 257.776327 191.634286 251.736816 198.546286 247.186286 204.64849 243.173878 220.62498 232.662204 233.242122 224.36049 233.242122 203.081143 233.242122 175.098776 210.473796 152.330449 182.491429 152.330449 154.498612 152.330449 131.719837 175.093551 131.719837 203.081143 131.719837 207.412245 135.225469 210.917878 139.556571 210.917878 143.887673 210.917878 147.393306 207.412245 147.393306 203.081143 147.393306 183.740082 163.139918 168.003918 182.491429 168.003918 201.83249 168.003918 217.568653 183.740082 217.568653 203.081143 217.568653 215.327347 212.391184 219.313633 196.033306 230.081306zM331.211755 328.500245C335.537633 328.500245 339.04849 324.989388 339.04849 320.66351L339.04849 283.715918 362.004898 283.715918C366.330776 283.715918 369.841633 280.205061 369.841633 275.879184 369.841633 271.553306 366.330776 268.042449 362.004898 268.042449L339.04849 268.042449 339.04849 161.081469C339.04849 157.607184 336.760163 154.550857 333.432163 153.568653 330.104163 152.586449 326.514939 153.913469 324.628898 156.828735L250.435918 271.621224C248.87902 274.034939 248.764082 277.101714 250.132898 279.619918 251.501714 282.138122 254.145306 283.710694 257.013551 283.710694L323.37502 283.710694 323.37502 320.658286C323.37502 324.989388 326.885878 328.500245 331.211755 328.500245zM271.412245 268.042449L323.37502 187.642776 323.37502 268.042449 271.412245 268.042449z"/>
    <path d="M508.959347,210.625306 C505.652245,207.835429 500.699429,208.258612 497.92,211.565714 L484.153469,227.897469 C475.073306,102.514939 370.228245,3.26008163 242.567837,3.26008163 C108.967184,3.26008163 0.271673469,111.950367 0.271673469,245.545796 C0.271673469,379.146449 108.967184,487.83151 242.567837,487.83151 C328.150204,487.83151 405.723429,444.050286 450.068898,370.719347 C452.310204,367.015184 451.124245,362.198204 447.420082,359.956898 C443.721143,357.710367 438.898939,358.901551 436.657633,362.605714 C395.175184,431.203265 322.617469,472.158041 242.567837,472.158041 C117.60849,472.158041 15.9451429,370.499918 15.9451429,245.545796 C15.9451429,120.591673 117.60849,18.933551 242.567837,18.933551 C362.584816,18.933551 461.056,112.723592 468.662857,230.849306 L451.108571,216.189388 C447.775347,213.409959 442.843429,213.86449 440.069224,217.182041 C437.29502,220.504816 437.739102,225.447184 441.056653,228.221388 L472.231184,254.25502 C473.699265,255.477551 475.480816,256.078367 477.251918,256.078367 C479.482776,256.078367 481.703184,255.12751 483.244408,253.293714 L509.899755,221.675102 C512.689633,218.362776 512.271673,213.415184 508.959347,210.625306 Z"/>
  </g>
</svg>
