<svg xmlns="http://www.w3.org/2000/svg" width="506" height="506" viewBox="0 0 506 506">
  <g transform="translate(-3 -3)">
    <path d="M256,508.731915 C116.561702,508.731915 3.26808511,395.438298 3.26808511,256 C3.26808511,116.561702 116.561702,3.26808511 256,3.26808511 C395.438298,3.26808511 508.731915,116.561702 508.731915,256 C508.731915,395.438298 395.438298,508.731915 256,508.731915 Z M256,19.6085106 C125.821277,19.6085106 19.6085106,125.821277 19.6085106,256 C19.6085106,386.178723 125.821277,492.391489 256,492.391489 C386.178723,492.391489 492.391489,386.178723 492.391489,256 C492.391489,125.821277 386.178723,19.6085106 256,19.6085106 Z"/>
    <path d="M161.225532 333.344681C135.080851 333.344681 114.382979 302.842553 114.382979 263.625532 114.382979 224.408511 135.080851 193.906383 161.225532 193.906383 187.370213 193.906383 208.068085 224.408511 208.068085 263.625532 208.068085 302.842553 187.914894 333.344681 161.225532 333.344681zM161.225532 210.246809C144.885106 210.246809 130.723404 234.757447 130.723404 263.625532 130.723404 292.493617 144.885106 317.004255 161.225532 317.004255 177.565957 317.004255 191.72766 292.493617 191.72766 263.625532 191.72766 234.757447 178.110638 210.246809 161.225532 210.246809zM262.53617 333.344681C236.391489 333.344681 215.693617 302.842553 215.693617 263.625532 215.693617 224.408511 236.391489 193.906383 262.53617 193.906383 288.680851 193.906383 309.378723 224.408511 309.378723 263.625532 309.378723 302.842553 288.680851 333.344681 262.53617 333.344681zM262.53617 210.246809C246.195745 210.246809 232.034043 234.757447 232.034043 263.625532 232.034043 292.493617 246.195745 317.004255 262.53617 317.004255 278.876596 317.004255 293.038298 292.493617 293.038298 263.625532 293.038298 234.757447 279.421277 210.246809 262.53617 210.246809zM98.587234 333.344681C94.2297872 333.344681 90.4170213 329.531915 90.4170213 325.174468L90.4170213 221.685106 71.3531915 236.391489C67.5404255 239.114894 62.6382979 238.570213 59.9148936 234.757447 57.1914894 230.944681 57.7361702 226.042553 61.5489362 223.319149L93.6851064 198.26383C96.4085106 196.085106 99.6765957 196.085106 102.4 197.174468 105.123404 198.808511 106.757447 201.531915 106.757447 204.255319L106.757447 324.629787C106.757447 329.531915 102.944681 333.344681 98.587234 333.344681zM347.506383 332.255319C345.87234 332.255319 344.238298 331.710638 343.148936 330.621277 339.33617 327.897872 338.246809 322.995745 340.970213 319.182979L420.493617 200.987234C423.217021 197.174468 428.119149 196.085106 431.931915 198.808511 435.744681 201.531915 436.834043 206.434043 434.110638 210.246809L354.042553 328.442553C352.408511 331.165957 349.685106 332.255319 347.506383 332.255319zM356.765957 258.178723C338.791489 258.178723 323.540426 243.47234 323.540426 224.953191 323.540426 206.978723 338.246809 191.72766 356.765957 191.72766 374.740426 191.72766 389.991489 206.434043 389.991489 224.953191 389.991489 243.47234 374.740426 258.178723 356.765957 258.178723zM356.765957 208.612766C347.506383 208.612766 339.880851 216.238298 339.880851 225.497872 339.880851 234.757447 347.506383 242.382979 356.765957 242.382979 366.025532 242.382979 373.651064 234.757447 373.651064 225.497872 373.651064 216.238298 366.025532 208.612766 356.765957 208.612766zM425.940426 326.26383C407.965957 326.26383 392.714894 311.557447 392.714894 293.038298 392.714894 275.06383 407.421277 259.812766 425.940426 259.812766 443.914894 259.812766 459.165957 274.519149 459.165957 293.038298 459.165957 311.557447 444.459574 326.26383 425.940426 326.26383zM425.940426 276.697872C416.680851 276.697872 409.055319 284.323404 409.055319 293.582979 409.055319 302.842553 416.680851 310.468085 425.940426 310.468085 435.2 310.468085 442.825532 302.842553 442.825532 293.582979 442.825532 283.778723 435.2 276.697872 425.940426 276.697872z"/>
  </g>
</svg>
