<svg xmlns="http://www.w3.org/2000/svg" width="503" height="506" viewBox="0 0 503 506">
  <g transform="translate(-1.247 -2)">
    <path d="M330.873118 187.733333L164.610753 319.862366C161.307527 322.615054 160.206452 328.12043 163.509677 331.423656 165.16129 333.625806 167.363441 334.726882 170.116129 334.726882 171.767742 334.726882 173.969892 334.176344 175.070968 333.075269L341.333333 200.946237C344.636559 198.193548 345.737634 192.688172 342.434409 189.384946 339.68172 185.531183 334.726882 184.980645 330.873118 187.733333zM209.204301 246.64086C211.406452 246.64086 213.608602 246.64086 215.810753 246.090323 238.382796 242.787097 254.348387 221.316129 250.494624 198.193548 248.843011 187.182796 242.787097 177.273118 233.978495 170.666667 225.169892 164.060215 214.15914 161.307527 203.148387 162.95914 192.137634 164.610753 182.227957 170.666667 175.621505 179.475269 169.015054 188.283871 166.262366 199.294624 167.913978 210.305376 171.217204 231.776344 189.384946 246.64086 209.204301 246.64086zM205.350538 180.025806C206.451613 180.025806 208.103226 179.475269 209.204301 179.475269 221.316129 179.475269 232.326882 188.283871 233.978495 200.946237 236.180645 214.709677 226.821505 227.372043 213.058065 229.574194 199.294624 231.776344 186.632258 222.417204 184.430108 208.653763 182.227957 194.890323 192.137634 182.227957 205.350538 180.025806zM297.290323 274.167742C274.167742 274.167742 255.449462 292.886022 255.449462 316.008602 255.449462 339.131183 274.167742 357.849462 297.290323 357.849462 320.412903 357.849462 339.131183 339.131183 339.131183 316.008602 338.580645 292.886022 319.862366 274.167742 297.290323 274.167742zM297.290323 340.782796C283.526882 340.782796 271.965591 329.221505 271.965591 315.458065 271.965591 301.694624 283.526882 290.133333 297.290323 290.133333 311.053763 290.133333 322.615054 301.694624 322.615054 315.458065 322.064516 329.772043 311.053763 340.782796 297.290323 340.782796z"/>
    <path d="M503.191398,254.898925 C503.191398,254.348387 503.741935,253.247312 503.741935,252.696774 C503.741935,229.023656 478.967742,216.911828 457.496774,206.451613 C442.08172,198.744086 425.565591,190.486022 421.16129,180.576344 C416.756989,170.116129 422.812903,153.049462 428.868817,137.083871 C437.126882,114.511828 445.384946,91.3892473 429.969892,75.9741935 C414.554839,60.5591398 392.533333,66.0645161 370.511828,71.0193548 C355.096774,74.3225806 339.131183,78.1763441 328.670968,73.772043 C318.210753,69.3677419 309.402151,55.6043011 301.144086,42.3913978 C289.032258,23.6731183 275.819355,2.20215054 252.696774,2.20215054 C229.574194,2.20215054 216.36129,23.6731183 204.8,42.9419355 C196.541935,56.7053763 188.283871,70.4688172 177.823656,74.8731183 C167.363441,79.2774194 150.847312,75.4236559 135.432258,71.5698925 C113.410753,66.0645161 90.8387097,60.5591398 75.9741935,75.4236559 C60.5591398,90.8387097 68.2666667,113.96129 75.4236559,136.533333 C80.9290323,153.049462 85.883871,169.565591 81.4795699,180.576344 C77.0752688,191.036559 61.6602151,198.744086 46.7956989,206.451613 C25.8752688,217.462366 2.20215054,229.574194 2.20215054,252.696774 C2.20215054,253.247312 2.20215054,254.348387 2.75268817,254.898925 C2.75268817,255.449462 2.20215054,256.550538 2.20215054,257.101075 C2.20215054,280.223656 25.8752688,292.886022 46.7956989,303.346237 C61.6602151,311.053763 77.0752688,318.76129 81.4795699,329.221505 C85.883871,339.68172 80.3784946,356.748387 75.4236559,373.264516 C68.2666667,395.836559 60.5591398,418.95914 75.9741935,434.374194 C91.3892473,449.789247 113.96129,443.733333 135.432258,438.227957 C150.847312,434.374194 167.363441,430.52043 177.823656,434.924731 C188.283871,439.329032 196.541935,453.092473 204.8,466.855914 C216.36129,486.124731 229.574194,507.595699 252.696774,507.595699 C275.819355,507.595699 289.582796,486.124731 301.144086,467.406452 C309.402151,454.193548 318.210753,440.430108 328.670968,436.025806 C339.68172,431.621505 355.096774,434.924731 370.511828,438.778495 C391.982796,443.733333 414.554839,449.23871 429.969892,433.823656 C445.384946,418.408602 437.126882,395.286022 428.868817,372.713978 C422.812903,356.197849 416.756989,339.68172 421.16129,329.221505 C425.565591,318.76129 441.531183,311.053763 457.496774,303.346237 C478.967742,292.335484 503.741935,280.223656 503.741935,257.101075 C503.741935,256 503.191398,255.449462 503.191398,254.898925 Z M449.789247,288.48172 C431.621505,297.84086 412.352688,307.2 405.746237,323.165591 C398.589247,339.68172 406.296774,359.501075 412.903226,378.769892 C419.509677,396.937634 426.116129,414.554839 417.858065,422.262366 C409.049462,431.070968 391.982796,427.217204 373.815054,422.812903 C355.647312,418.408602 337.47957,414.554839 321.513978,421.16129 C306.098925,427.767742 296.189247,443.182796 286.830108,458.597849 C276.369892,475.113978 266.460215,491.07957 252.146237,491.07957 C238.382796,491.07957 228.473118,475.113978 218.012903,458.047312 C208.653763,442.08172 198.744086,426.116129 183.329032,419.509677 C167.363441,412.903226 148.645161,417.307527 130.477419,422.262366 C112.309677,426.666667 95.2430108,431.070968 86.4344086,422.812903 C78.1763441,414.554839 83.6817204,396.937634 89.7376344,378.769892 C95.7935484,359.501075 102.4,339.68172 95.2430108,323.716129 C88.6365591,307.750538 70.4688172,298.391398 52.8516129,289.582796 C34.683871,280.223656 17.6172043,271.415054 17.6172043,257.651613 C17.6172043,257.101075 17.6172043,256 17.0666667,255.449462 C17.0666667,254.898925 17.6172043,253.797849 17.6172043,253.247312 C17.6172043,240.034409 34.683871,231.225806 52.8516129,221.316129 C70.4688172,212.507527 88.6365591,203.148387 95.2430108,187.182796 C101.849462,170.666667 95.7935484,150.847312 89.7376344,132.129032 C83.6817204,113.410753 78.1763441,95.7935484 86.4344086,88.0860215 C95.2430108,79.2774194 112.309677,83.6817204 130.477419,88.6365591 C148.645161,93.0408602 167.363441,97.9956989 183.329032,91.3892473 C198.744086,84.7827957 208.653763,68.8172043 218.012903,52.8516129 C228.473118,35.7849462 237.832258,19.8193548 252.146237,19.8193548 C266.460215,19.8193548 276.369892,35.7849462 286.830108,52.3010753 C296.739785,67.716129 306.649462,83.1311828 321.513978,89.7376344 C337.47957,96.344086 355.647312,91.9397849 373.815054,88.0860215 C391.982796,83.6817204 409.049462,79.827957 417.858065,88.6365591 C426.116129,96.344086 419.509677,113.96129 412.903226,132.129032 C405.746237,151.397849 398.589247,171.217204 405.746237,187.733333 C412.352688,203.698925 431.621505,213.058065 449.789247,222.417204 C469.058065,231.776344 486.675269,241.135484 486.675269,254.348387 C486.675269,254.898925 486.675269,256 487.225806,256.550538 C487.225806,257.101075 486.675269,258.202151 486.675269,258.752688 C487.225806,269.763441 469.058065,279.122581 449.789247,288.48172 Z"/>
  </g>
</svg>
