<svg xmlns="http://www.w3.org/2000/svg" width="470" height="508" viewBox="0 0 470 508">
  <g transform="translate(-4.304 -2)">
    <path d="M473.906087,146.064696 L473.906087,146.042435 C473.906087,146.020174 473.900522,146.003478 473.900522,145.981217 C473.894957,145.380174 473.811478,144.77913 473.677913,144.189217 C473.633391,144 473.572174,143.821913 473.516522,143.638261 C473.394087,143.232 473.238261,142.831304 473.049043,142.436174 C472.94887,142.230261 472.84313,142.024348 472.726261,141.829565 C472.648348,141.696 472.592696,141.545739 472.509217,141.417739 C472.358957,141.19513 472.175304,141.011478 472.008348,140.805565 C471.874783,140.638609 471.752348,140.471652 471.607652,140.315826 C471.17913,139.859478 470.717217,139.453217 470.210783,139.113739 C470.205217,139.108174 470.199652,139.102609 470.194087,139.097043 L470.188522,139.091478 C470.171826,139.080348 470.15513,139.069217 470.144,139.058087 L267.737043,4.352 C264.932174,2.48765217 261.286957,2.48765217 258.482087,4.352 L187.236174,51.8511304 C187.236174,51.8511304 187.230609,51.8566957 187.230609,51.8566957 L121.766957,95.4935652 C120.870957,95.8886957 120.030609,96.4285217 119.30713,97.1353043 L8.48695652,171.01913 C7.95269565,171.369739 7.46295652,171.803826 7.0066087,172.282435 C6.86191304,172.438261 6.73947826,172.605217 6.60591304,172.772174 C6.43895652,172.978087 6.25530435,173.156174 6.10504348,173.384348 C6.016,173.512348 5.96591304,173.657043 5.888,173.790609 C5.77113043,173.990957 5.65982609,174.19687 5.55965217,174.413913 C5.376,174.797913 5.22573913,175.193043 5.10330435,175.593739 C5.04208696,175.788522 4.98086957,175.972174 4.93634783,176.166957 C4.80834783,176.734609 4.73043478,177.307826 4.72486957,177.886609 C4.72486957,177.93113 4.70817391,177.970087 4.70817391,178.009043 L4.70817391,178.053565 C4.70817391,178.053565 4.70817391,178.05913 4.70817391,178.05913 L4.70817391,365.946435 C4.70817391,368.740174 6.10504348,371.350261 8.43130435,372.897391 L210.877217,507.642435 C210.905043,507.65913 210.93287,507.664696 210.960696,507.681391 C211.545043,508.059826 212.185043,508.343652 212.85287,508.571826 C213.019826,508.627478 213.181217,508.68313 213.348174,508.727652 C214.038261,508.911304 214.750609,509.039304 215.496348,509.039304 C216.242087,509.039304 216.954435,508.911304 217.644522,508.722087 C217.811478,508.677565 217.978435,508.621913 218.139826,508.566261 C218.824348,508.338087 219.481043,508.048696 220.070957,507.65913 C220.087652,507.648 220.104348,507.642435 220.121043,507.63687 L220.154435,507.614609 C220.16,507.614609 220.16,507.609043 220.165565,507.609043 L470.177391,340.930783 C472.498087,339.383652 473.894957,336.77913 473.894957,333.985391 L473.894957,146.103652 C473.906087,146.092522 473.906087,146.075826 473.906087,146.064696 Z M263.117913,21.325913 L450.498783,146.048 L391.234783,185.561043 L206.642087,58.9801739 L263.117913,21.325913 Z M215.501913,302.72 L28.109913,177.997913 L125.19513,113.274435 L309.793391,239.855304 L215.501913,302.72 Z M191.671652,68.9586087 L376.264348,195.539478 L324.758261,229.87687 L140.16,103.296 L191.671652,68.9586087 Z M332.866783,244.535652 L382.425043,211.494957 L380.66087,290.153739 L332.866783,321.508174 L332.866783,244.535652 Z M21.4038261,193.586087 L207.154087,317.222957 L207.154087,485.103304 L21.4038261,361.472 L21.4038261,193.586087 Z M223.849739,485.092174 L223.849739,317.217391 L316.17113,255.666087 L316.17113,336.968348 C316.17113,340.034783 317.857391,342.856348 320.550957,344.314435 C321.797565,344.982261 323.161043,345.316174 324.518957,345.316174 C326.116174,345.316174 327.713391,344.859826 329.09913,343.94713 L393.488696,301.701565 C395.781565,300.193391 397.189565,297.655652 397.256348,294.906435 L399.376696,200.192 L457.210435,161.636174 L457.210435,329.516522 L223.849739,485.092174 Z"/>
    <path d="M191.88313 358.694957C194.582261 358.694957 197.231304 357.392696 198.839652 354.971826 201.394087 351.137391 200.353391 345.950609 196.518957 343.396174L100.87513 279.735652C97.0351304 277.181217 91.8483478 278.216348 89.2994783 282.061913 86.7450435 285.896348 87.7857391 291.08313 91.6201739 293.637565L187.269565 357.298087C188.688696 358.244174 190.297043 358.694957 191.88313 358.694957zM196.518957 386.944L141.746087 350.486261C137.906087 347.931826 132.719304 348.972522 130.170435 352.812522 127.616 356.646957 128.656696 361.833739 132.49113 364.388174L187.264 400.845913C188.68313 401.792 190.291478 402.242783 191.88313 402.242783 194.582261 402.242783 197.231304 400.940522 198.839652 398.519652 201.394087 394.679652 200.353391 389.498435 196.518957 386.944z"/>
  </g>
</svg>
